<svg xmlns="http://www.w3.org/2000/svg" width="166.003" height="98.671" viewBox="0 0 166.003 98.671"><defs><style>.a{fill:#f11761;}</style></defs><g transform="translate(90.189 -915)"><path class="a" d="M3.971-9.006v-1.52H1.311V5.016h2.66V-1.5A4.3,4.3,0,0,0,7.448.171c2.7,0,4.807-2.185,4.807-5.472s-2.109-5.4-4.807-5.4A4.2,4.2,0,0,0,3.971-9.006ZM9.538-5.3A2.879,2.879,0,0,1,6.745-2.166a2.842,2.842,0,0,1-2.774-3.1,2.842,2.842,0,0,1,2.774-3.1A2.811,2.811,0,0,1,9.538-5.3Zm7.315.057c0-2.033.95-2.641,2.527-2.641h.7v-2.793a3.651,3.651,0,0,0-3.23,1.786v-1.634h-2.66V0h2.66Zm15.181-.019A5.2,5.2,0,0,0,26.619-10.7,5.2,5.2,0,0,0,21.2-5.263,5.152,5.152,0,0,0,26.543.171,5.263,5.263,0,0,0,32.034-5.263Zm-8.132,0c0-2.109,1.273-3.116,2.679-3.116S29.3-7.372,29.3-5.263a2.8,2.8,0,0,1-2.755,3.116C25.118-2.147,23.9-3.173,23.9-5.263ZM41.363,0h2.66V-6.175c0-2.907-1.748-4.5-4.2-4.5a3.932,3.932,0,0,0-3.173,1.463v-1.311h-2.66V0h2.66V-5.814a2.285,2.285,0,0,1,2.375-2.6c1.406,0,2.337.912,2.337,2.6Zm5.6-3.268C46.968-.855,48.317,0,50.331,0H52V-2.242H50.768c-.836,0-1.121-.3-1.121-1.007V-8.341H52v-2.185H49.647v-2.6H46.968v2.6H45.714v2.185h1.254ZM64.087-5.263A5.2,5.2,0,0,0,58.672-10.7a5.2,5.2,0,0,0-5.415,5.434A5.152,5.152,0,0,0,58.6.171,5.263,5.263,0,0,0,64.087-5.263Zm-8.132,0c0-2.109,1.273-3.116,2.679-3.116s2.717,1.007,2.717,3.116A2.8,2.8,0,0,1,58.6-2.147C57.171-2.147,55.955-3.173,55.955-5.263Zm9.006,8H66.69l2.356-5.662H66.234ZM79.933-8.512a2.339,2.339,0,0,1,2.508,2.261h-5A2.444,2.444,0,0,1,79.933-8.512Zm5,5.206H82.061a2.169,2.169,0,0,1-2.109,1.273,2.463,2.463,0,0,1-2.527-2.432h7.7A6.218,6.218,0,0,0,85.2-5.491,4.942,4.942,0,0,0,80.009-10.7a5.058,5.058,0,0,0-5.282,5.434A5.1,5.1,0,0,0,80.009.171,4.892,4.892,0,0,0,84.93-3.306ZM94.506,0h2.66V-6.175c0-2.907-1.748-4.5-4.2-4.5a3.932,3.932,0,0,0-3.173,1.463v-1.311h-2.66V0h2.66V-5.814a2.285,2.285,0,0,1,2.375-2.6c1.406,0,2.337.912,2.337,2.6Zm5.605-3.268C100.111-.855,101.46,0,103.474,0h1.672V-2.242h-1.235c-.836,0-1.121-.3-1.121-1.007V-8.341h2.356v-2.185H102.79v-2.6h-2.679v2.6H98.857v2.185h1.254Zm9.614-1.976c0-2.033.95-2.641,2.527-2.641h.7v-2.793a3.651,3.651,0,0,0-3.23,1.786v-1.634h-2.66V0h2.66Zm9.538-3.268a2.339,2.339,0,0,1,2.508,2.261h-5A2.444,2.444,0,0,1,119.263-8.512Zm5,5.206h-2.869a2.169,2.169,0,0,1-2.109,1.273,2.463,2.463,0,0,1-2.527-2.432h7.7a6.218,6.218,0,0,0,.076-1.026,4.942,4.942,0,0,0-5.187-5.206,5.058,5.058,0,0,0-5.282,5.434A5.1,5.1,0,0,0,119.339.171,4.892,4.892,0,0,0,124.26-3.306ZM125.78-5.3c0,3.287,2.128,5.472,4.807,5.472a4.152,4.152,0,0,0,3.477-1.729V.076a2.719,2.719,0,0,1-5.187,1.216h-2.641c.266,2.413,2.337,3.9,5.3,3.9A4.811,4.811,0,0,0,136.743.076v-10.6h-2.679v1.5a4.118,4.118,0,0,0-3.477-1.672C127.908-10.7,125.78-8.588,125.78-5.3Zm8.284.038a2.834,2.834,0,0,1-2.793,3.1A2.876,2.876,0,0,1,128.5-5.3a2.807,2.807,0,0,1,2.774-3.059A2.834,2.834,0,0,1,134.064-5.263Zm15.219-5.263H146.6v5.795c0,1.691-.912,2.6-2.356,2.6-1.406,0-2.337-.912-2.337-2.6v-5.795h-2.66v6.175c0,2.888,1.767,4.484,4.218,4.484A3.882,3.882,0,0,0,146.6-1.33V0h2.679Zm7.144,2.014a2.339,2.339,0,0,1,2.508,2.261h-5A2.444,2.444,0,0,1,156.427-8.512Zm5,5.206h-2.869a2.169,2.169,0,0,1-2.109,1.273,2.463,2.463,0,0,1-2.527-2.432h7.7a6.218,6.218,0,0,0,.076-1.026A4.942,4.942,0,0,0,156.5-10.7a5.058,5.058,0,0,0-5.282,5.434A5.1,5.1,0,0,0,156.5.171,4.892,4.892,0,0,0,161.424-3.306Zm3.1-1.007h2.242l.3-9.177H164.2Zm2.793,2.888A1.555,1.555,0,0,0,165.7-2.983a1.565,1.565,0,0,0-1.653,1.558A1.565,1.565,0,0,0,165.7.133,1.555,1.555,0,0,0,167.314-1.425Z" transform="translate(-91.5 1008.484)"/><path class="a" d="M55.915,27.958A27.978,27.978,0,0,1,21.321,55.121h0A17.257,17.257,0,0,1,6.105,64.227H0V31.859l.268-.016a86.734,86.734,0,0,0,8.939-.91c.156-.027.306-.055.452-.079a.2.2,0,0,1,.037,0,1.384,1.384,0,0,1,1.319.932v0a1.17,1.17,0,0,1,.059.389V32.2a9.746,9.746,0,0,0,9.694,7.893l.553,0,.622.006,21.009.188A2.268,2.268,0,0,0,45.3,38.111a2.13,2.13,0,0,0-.67-1.56,2.4,2.4,0,0,0-1.642-.661L30.6,35.78a2.234,2.234,0,0,1-1.524-.61,1.963,1.963,0,0,1,.027-2.89,2.226,2.226,0,0,1,1.533-.583l12.392.111A2.269,2.269,0,0,0,45.38,29.63a2.125,2.125,0,0,0-.669-1.56,2.4,2.4,0,0,0-1.643-.66L30.675,27.3a2.207,2.207,0,0,1-1.522-.613,1.956,1.956,0,0,1,.025-2.884,2.207,2.207,0,0,1,1.534-.585L43.1,23.33a2.27,2.27,0,0,0,2.351-2.18,2.13,2.13,0,0,0-.669-1.56,2.4,2.4,0,0,0-1.643-.66l-22.184-.2a9.748,9.748,0,0,0-9.833,7.721v.014a1.249,1.249,0,0,1-.067.39v0a1.387,1.387,0,0,1-1.336.905.381.381,0,0,1-.053,0c-.138-.028-.277-.056-.424-.083h0C6.653,27.3,3.56,26.9.034,26.574a27.957,27.957,0,0,1,55.88,1.384Z" transform="translate(-31.594 915)"/></g></svg>